<svg width="710" height="212" viewBox="0 0 710 212" fill="none" xmlns="http://www.w3.org/2000/svg">
<rect width="710" height="212" fill="white"/>
<g filter="url(#filter0_d_1_63)">
<rect x="35" y="74" width="320" height="49" fill="#D9D9D9"/>
<rect x="34.5" y="73.5" width="321" height="50" stroke="black"/>
</g>
<g filter="url(#filter1_d_1_63)">
<rect x="355" y="74" width="320" height="49" fill="#D9D9D9"/>
<rect x="354.5" y="73.5" width="321" height="50" stroke="black"/>
</g>
<path d="M141.81 61L141.165 50.53H143.1L143.4 56.8L143.49 58.78H143.625L144.525 52.81H146.55L147.45 58.78H147.585L147.675 56.86L147.975 50.53H149.835L149.19 61H146.34L145.575 55.225H145.425L144.66 61H141.81ZM154.494 61.18C153.894 61.18 153.354 61.09 152.874 60.91C152.394 60.72 151.984 60.45 151.644 60.1C151.314 59.75 151.059 59.325 150.879 58.825C150.699 58.325 150.609 57.76 150.609 57.13C150.609 56.5 150.699 55.935 150.879 55.435C151.059 54.935 151.314 54.51 151.644 54.16C151.984 53.81 152.394 53.545 152.874 53.365C153.354 53.175 153.894 53.08 154.494 53.08C155.094 53.08 155.634 53.175 156.114 53.365C156.594 53.545 156.999 53.81 157.329 54.16C157.669 54.51 157.929 54.935 158.109 55.435C158.289 55.935 158.379 56.5 158.379 57.13C158.379 57.76 158.289 58.325 158.109 58.825C157.929 59.325 157.669 59.75 157.329 60.1C156.999 60.45 156.594 60.72 156.114 60.91C155.634 61.09 155.094 61.18 154.494 61.18ZM154.494 59.53C154.994 59.53 155.384 59.375 155.664 59.065C155.944 58.755 156.084 58.315 156.084 57.745V56.515C156.084 55.945 155.944 55.505 155.664 55.195C155.384 54.885 154.994 54.73 154.494 54.73C153.994 54.73 153.604 54.885 153.324 55.195C153.044 55.505 152.904 55.945 152.904 56.515V57.745C152.904 58.315 153.044 58.755 153.324 59.065C153.604 59.375 153.994 59.53 154.494 59.53ZM160.098 59.275H161.883V54.985H160.098V53.26H164.103V55.45H164.208C164.278 55.17 164.373 54.9 164.493 54.64C164.623 54.37 164.783 54.135 164.973 53.935C165.173 53.725 165.413 53.56 165.693 53.44C165.973 53.32 166.303 53.26 166.683 53.26H167.418V55.3H165.768C165.218 55.3 164.803 55.465 164.523 55.795C164.243 56.115 164.103 56.51 164.103 56.98V59.275H166.653V61H160.098V59.275ZM173.877 59.59H173.772C173.572 60.06 173.292 60.445 172.932 60.745C172.582 61.035 172.097 61.18 171.477 61.18C171.047 61.18 170.652 61.1 170.292 60.94C169.942 60.78 169.637 60.535 169.377 60.205C169.127 59.875 168.927 59.455 168.777 58.945C168.637 58.435 168.567 57.83 168.567 57.13C168.567 56.43 168.637 55.825 168.777 55.315C168.927 54.805 169.127 54.385 169.377 54.055C169.637 53.725 169.942 53.48 170.292 53.32C170.652 53.16 171.047 53.08 171.477 53.08C171.787 53.08 172.062 53.12 172.302 53.2C172.542 53.28 172.752 53.39 172.932 53.53C173.122 53.67 173.282 53.84 173.412 54.04C173.552 54.23 173.672 54.44 173.772 54.67H173.877V49.9H176.097V61H173.877V59.59ZM172.437 59.455C172.827 59.455 173.162 59.36 173.442 59.17C173.732 58.98 173.877 58.68 173.877 58.27V55.99C173.877 55.58 173.732 55.28 173.442 55.09C173.162 54.9 172.827 54.805 172.437 54.805C171.937 54.805 171.552 54.96 171.282 55.27C171.012 55.57 170.877 55.99 170.877 56.53V57.73C170.877 58.27 171.012 58.695 171.282 59.005C171.552 59.305 171.937 59.455 172.437 59.455ZM190.471 61.18C189.071 61.18 188.036 60.705 187.366 59.755C186.706 58.805 186.376 57.475 186.376 55.765C186.376 54.055 186.706 52.725 187.366 51.775C188.036 50.825 189.071 50.35 190.471 50.35C191.871 50.35 192.901 50.825 193.561 51.775C194.231 52.725 194.566 54.055 194.566 55.765C194.566 57.475 194.231 58.805 193.561 59.755C192.901 60.705 191.871 61.18 190.471 61.18ZM190.471 59.41C191.141 59.41 191.606 59.175 191.866 58.705C192.136 58.235 192.271 57.58 192.271 56.74V54.79C192.271 53.95 192.136 53.295 191.866 52.825C191.606 52.355 191.141 52.12 190.471 52.12C189.801 52.12 189.331 52.355 189.061 52.825C188.801 53.295 188.671 53.95 188.671 54.79V56.74C188.671 57.58 188.801 58.235 189.061 58.705C189.331 59.175 189.801 59.41 190.471 59.41ZM190.471 56.65C190.121 56.65 189.876 56.58 189.736 56.44C189.606 56.3 189.541 56.13 189.541 55.93V55.6C189.541 55.4 189.606 55.23 189.736 55.09C189.876 54.95 190.121 54.88 190.471 54.88C190.821 54.88 191.061 54.95 191.191 55.09C191.331 55.23 191.401 55.4 191.401 55.6V55.93C191.401 56.13 191.331 56.3 191.191 56.44C191.061 56.58 190.821 56.65 190.471 56.65ZM206.569 56.335C206.569 55.605 206.649 54.905 206.809 54.235C206.979 53.555 207.204 52.925 207.484 52.345C207.774 51.765 208.109 51.245 208.489 50.785C208.869 50.315 209.269 49.92 209.689 49.6H211.909C211.439 49.92 210.994 50.295 210.574 50.725C210.154 51.145 209.784 51.61 209.464 52.12C209.154 52.63 208.904 53.175 208.714 53.755C208.524 54.335 208.429 54.94 208.429 55.57V57.1C208.429 57.73 208.524 58.335 208.714 58.915C208.904 59.495 209.154 60.04 209.464 60.55C209.784 61.06 210.154 61.525 210.574 61.945C210.994 62.375 211.439 62.75 211.909 63.07H209.689C209.269 62.76 208.869 62.37 208.489 61.9C208.109 61.43 207.774 60.905 207.484 60.325C207.204 59.745 206.979 59.12 206.809 58.45C206.649 57.77 206.569 57.065 206.569 56.335ZM218.758 59.59H218.668C218.498 60.03 218.228 60.405 217.858 60.715C217.498 61.025 217.008 61.18 216.388 61.18C216.018 61.18 215.678 61.12 215.368 61C215.058 60.87 214.793 60.68 214.573 60.43C214.353 60.18 214.178 59.875 214.048 59.515C213.928 59.155 213.868 58.74 213.868 58.27V53.26H216.088V57.97C216.088 58.97 216.523 59.47 217.393 59.47C217.563 59.47 217.728 59.45 217.888 59.41C218.058 59.36 218.203 59.29 218.323 59.2C218.453 59.1 218.558 58.98 218.638 58.84C218.718 58.7 218.758 58.535 218.758 58.345V53.26H220.978V61H218.758V59.59ZM226.507 61.18C225.877 61.18 225.312 61.085 224.812 60.895C224.322 60.695 223.907 60.415 223.567 60.055C223.227 59.685 222.967 59.245 222.787 58.735C222.607 58.225 222.517 57.655 222.517 57.025C222.517 56.295 222.632 55.605 222.862 54.955C223.092 54.295 223.387 53.69 223.747 53.14C224.117 52.58 224.527 52.08 224.977 51.64C225.437 51.2 225.892 50.83 226.342 50.53H229.447C228.797 50.98 228.212 51.415 227.692 51.835C227.182 52.245 226.732 52.66 226.342 53.08C225.962 53.49 225.647 53.915 225.397 54.355C225.157 54.795 224.982 55.27 224.872 55.78L225.007 55.825C225.097 55.625 225.207 55.43 225.337 55.24C225.467 55.05 225.627 54.885 225.817 54.745C226.007 54.595 226.227 54.475 226.477 54.385C226.737 54.295 227.037 54.25 227.377 54.25C227.817 54.25 228.227 54.33 228.607 54.49C228.987 54.64 229.312 54.86 229.582 55.15C229.862 55.43 230.082 55.77 230.242 56.17C230.402 56.57 230.482 57.02 230.482 57.52C230.482 58.05 230.387 58.54 230.197 58.99C230.007 59.44 229.737 59.83 229.387 60.16C229.047 60.48 228.632 60.73 228.142 60.91C227.652 61.09 227.107 61.18 226.507 61.18ZM226.492 59.425C227.032 59.425 227.442 59.285 227.722 59.005C228.002 58.715 228.142 58.31 228.142 57.79V57.58C228.142 57.06 227.997 56.665 227.707 56.395C227.427 56.115 227.022 55.975 226.492 55.975C225.982 55.975 225.582 56.115 225.292 56.395C225.002 56.665 224.857 57.06 224.857 57.58V57.79C224.857 58.31 224.992 58.715 225.262 59.005C225.542 59.285 225.952 59.425 226.492 59.425ZM236.026 61V58.99H231.316V57.07L235.486 50.53H238.186V57.25H239.536V58.99H238.186V61H236.026ZM233.131 57.25H236.026V52.855H235.891L233.131 57.25ZM246.326 56.335C246.326 57.065 246.241 57.77 246.071 58.45C245.911 59.12 245.686 59.745 245.396 60.325C245.116 60.905 244.786 61.43 244.406 61.9C244.026 62.37 243.626 62.76 243.206 63.07H240.986C241.446 62.75 241.886 62.375 242.306 61.945C242.736 61.525 243.106 61.06 243.416 60.55C243.736 60.04 243.991 59.495 244.181 58.915C244.371 58.335 244.466 57.73 244.466 57.1V55.57C244.466 54.94 244.371 54.335 244.181 53.755C243.991 53.175 243.736 52.63 243.416 52.12C243.106 51.61 242.736 51.145 242.306 50.725C241.886 50.295 241.446 49.92 240.986 49.6H243.206C243.626 49.92 244.026 50.315 244.406 50.785C244.786 51.245 245.116 51.765 245.396 52.345C245.686 52.925 245.911 53.555 246.071 54.235C246.241 54.905 246.326 55.605 246.326 56.335Z" fill="black"/>
<path d="M461.81 62L461.165 51.53H463.1L463.4 57.8L463.49 59.78H463.625L464.525 53.81H466.55L467.45 59.78H467.585L467.675 57.86L467.975 51.53H469.835L469.19 62H466.34L465.575 56.225H465.425L464.66 62H461.81ZM474.494 62.18C473.894 62.18 473.354 62.09 472.874 61.91C472.394 61.72 471.984 61.45 471.644 61.1C471.314 60.75 471.059 60.325 470.879 59.825C470.699 59.325 470.609 58.76 470.609 58.13C470.609 57.5 470.699 56.935 470.879 56.435C471.059 55.935 471.314 55.51 471.644 55.16C471.984 54.81 472.394 54.545 472.874 54.365C473.354 54.175 473.894 54.08 474.494 54.08C475.094 54.08 475.634 54.175 476.114 54.365C476.594 54.545 476.999 54.81 477.329 55.16C477.669 55.51 477.929 55.935 478.109 56.435C478.289 56.935 478.379 57.5 478.379 58.13C478.379 58.76 478.289 59.325 478.109 59.825C477.929 60.325 477.669 60.75 477.329 61.1C476.999 61.45 476.594 61.72 476.114 61.91C475.634 62.09 475.094 62.18 474.494 62.18ZM474.494 60.53C474.994 60.53 475.384 60.375 475.664 60.065C475.944 59.755 476.084 59.315 476.084 58.745V57.515C476.084 56.945 475.944 56.505 475.664 56.195C475.384 55.885 474.994 55.73 474.494 55.73C473.994 55.73 473.604 55.885 473.324 56.195C473.044 56.505 472.904 56.945 472.904 57.515V58.745C472.904 59.315 473.044 59.755 473.324 60.065C473.604 60.375 473.994 60.53 474.494 60.53ZM480.098 60.275H481.883V55.985H480.098V54.26H484.103V56.45H484.208C484.278 56.17 484.373 55.9 484.493 55.64C484.623 55.37 484.783 55.135 484.973 54.935C485.173 54.725 485.413 54.56 485.693 54.44C485.973 54.32 486.303 54.26 486.683 54.26H487.418V56.3H485.768C485.218 56.3 484.803 56.465 484.523 56.795C484.243 57.115 484.103 57.51 484.103 57.98V60.275H486.653V62H480.098V60.275ZM493.877 60.59H493.772C493.572 61.06 493.292 61.445 492.932 61.745C492.582 62.035 492.097 62.18 491.477 62.18C491.047 62.18 490.652 62.1 490.292 61.94C489.942 61.78 489.637 61.535 489.377 61.205C489.127 60.875 488.927 60.455 488.777 59.945C488.637 59.435 488.567 58.83 488.567 58.13C488.567 57.43 488.637 56.825 488.777 56.315C488.927 55.805 489.127 55.385 489.377 55.055C489.637 54.725 489.942 54.48 490.292 54.32C490.652 54.16 491.047 54.08 491.477 54.08C491.787 54.08 492.062 54.12 492.302 54.2C492.542 54.28 492.752 54.39 492.932 54.53C493.122 54.67 493.282 54.84 493.412 55.04C493.552 55.23 493.672 55.44 493.772 55.67H493.877V50.9H496.097V62H493.877V60.59ZM492.437 60.455C492.827 60.455 493.162 60.36 493.442 60.17C493.732 59.98 493.877 59.68 493.877 59.27V56.99C493.877 56.58 493.732 56.28 493.442 56.09C493.162 55.9 492.827 55.805 492.437 55.805C491.937 55.805 491.552 55.96 491.282 56.27C491.012 56.57 490.877 56.99 490.877 57.53V58.73C490.877 59.27 491.012 59.695 491.282 60.005C491.552 60.305 491.937 60.455 492.437 60.455ZM507.381 62V60.185H510.201V53.165H510.066L507.936 55.955L506.496 54.83L509.001 51.53H512.451V60.185H514.671V62H507.381ZM526.569 57.335C526.569 56.605 526.649 55.905 526.809 55.235C526.979 54.555 527.204 53.925 527.484 53.345C527.774 52.765 528.109 52.245 528.489 51.785C528.869 51.315 529.269 50.92 529.689 50.6H531.909C531.439 50.92 530.994 51.295 530.574 51.725C530.154 52.145 529.784 52.61 529.464 53.12C529.154 53.63 528.904 54.175 528.714 54.755C528.524 55.335 528.429 55.94 528.429 56.57V58.1C528.429 58.73 528.524 59.335 528.714 59.915C528.904 60.495 529.154 61.04 529.464 61.55C529.784 62.06 530.154 62.525 530.574 62.945C530.994 63.375 531.439 63.75 531.909 64.07H529.689C529.269 63.76 528.869 63.37 528.489 62.9C528.109 62.43 527.774 61.905 527.484 61.325C527.204 60.745 526.979 60.12 526.809 59.45C526.649 58.77 526.569 58.065 526.569 57.335ZM538.758 60.59H538.668C538.498 61.03 538.228 61.405 537.858 61.715C537.498 62.025 537.008 62.18 536.388 62.18C536.018 62.18 535.678 62.12 535.368 62C535.058 61.87 534.793 61.68 534.573 61.43C534.353 61.18 534.178 60.875 534.048 60.515C533.928 60.155 533.868 59.74 533.868 59.27V54.26H536.088V58.97C536.088 59.97 536.523 60.47 537.393 60.47C537.563 60.47 537.728 60.45 537.888 60.41C538.058 60.36 538.203 60.29 538.323 60.2C538.453 60.1 538.558 59.98 538.638 59.84C538.718 59.7 538.758 59.535 538.758 59.345V54.26H540.978V62H538.758V60.59ZM546.507 62.18C545.877 62.18 545.312 62.085 544.812 61.895C544.322 61.695 543.907 61.415 543.567 61.055C543.227 60.685 542.967 60.245 542.787 59.735C542.607 59.225 542.517 58.655 542.517 58.025C542.517 57.295 542.632 56.605 542.862 55.955C543.092 55.295 543.387 54.69 543.747 54.14C544.117 53.58 544.527 53.08 544.977 52.64C545.437 52.2 545.892 51.83 546.342 51.53H549.447C548.797 51.98 548.212 52.415 547.692 52.835C547.182 53.245 546.732 53.66 546.342 54.08C545.962 54.49 545.647 54.915 545.397 55.355C545.157 55.795 544.982 56.27 544.872 56.78L545.007 56.825C545.097 56.625 545.207 56.43 545.337 56.24C545.467 56.05 545.627 55.885 545.817 55.745C546.007 55.595 546.227 55.475 546.477 55.385C546.737 55.295 547.037 55.25 547.377 55.25C547.817 55.25 548.227 55.33 548.607 55.49C548.987 55.64 549.312 55.86 549.582 56.15C549.862 56.43 550.082 56.77 550.242 57.17C550.402 57.57 550.482 58.02 550.482 58.52C550.482 59.05 550.387 59.54 550.197 59.99C550.007 60.44 549.737 60.83 549.387 61.16C549.047 61.48 548.632 61.73 548.142 61.91C547.652 62.09 547.107 62.18 546.507 62.18ZM546.492 60.425C547.032 60.425 547.442 60.285 547.722 60.005C548.002 59.715 548.142 59.31 548.142 58.79V58.58C548.142 58.06 547.997 57.665 547.707 57.395C547.427 57.115 547.022 56.975 546.492 56.975C545.982 56.975 545.582 57.115 545.292 57.395C545.002 57.665 544.857 58.06 544.857 58.58V58.79C544.857 59.31 544.992 59.715 545.262 60.005C545.542 60.285 545.952 60.425 546.492 60.425ZM556.026 62V59.99H551.316V58.07L555.486 51.53H558.186V58.25H559.536V59.99H558.186V62H556.026ZM553.131 58.25H556.026V53.855H555.891L553.131 58.25ZM566.326 57.335C566.326 58.065 566.241 58.77 566.071 59.45C565.911 60.12 565.686 60.745 565.396 61.325C565.116 61.905 564.786 62.43 564.406 62.9C564.026 63.37 563.626 63.76 563.206 64.07H560.986C561.446 63.75 561.886 63.375 562.306 62.945C562.736 62.525 563.106 62.06 563.416 61.55C563.736 61.04 563.991 60.495 564.181 59.915C564.371 59.335 564.466 58.73 564.466 58.1V56.57C564.466 55.94 564.371 55.335 564.181 54.755C563.991 54.175 563.736 53.63 563.416 53.12C563.106 52.61 562.736 52.145 562.306 51.725C561.886 51.295 561.446 50.92 560.986 50.6H563.206C563.626 50.92 564.026 51.315 564.406 51.785C564.786 52.245 565.116 52.765 565.396 53.345C565.686 53.925 565.911 54.555 566.071 55.235C566.241 55.905 566.326 56.605 566.326 57.335Z" fill="black"/>
<rect opacity="0.5" x="315" y="74" width="10" height="49" fill="#653999" stroke="black"/>
<rect opacity="0.5" x="335" y="74" width="10" height="49" fill="#653999" stroke="black"/>
<rect opacity="0.5" x="355" y="74" width="10" height="49" fill="#653999" stroke="black"/>
<rect opacity="0.5" x="375" y="74" width="10" height="49" fill="#653999" stroke="black"/>
<rect opacity="0.5" x="395" y="74" width="10" height="49" fill="#653999" stroke="black"/>
<rect opacity="0.5" x="405" y="74" width="10" height="49" fill="#653999" stroke="black"/>
<rect opacity="0.5" x="325" y="74" width="10" height="49" fill="#653999" stroke="black"/>
<rect opacity="0.5" x="345" y="74" width="10" height="49" fill="#653999" stroke="black"/>
<rect opacity="0.5" x="365" y="74" width="10" height="49" fill="#653999" stroke="black"/>
<rect opacity="0.5" x="385" y="74" width="10" height="49" fill="#653999" stroke="black"/>
<path d="M413.1 131C413.967 131 414.6 131.07 415 131.209V131.837C415 134.837 412.8 136.93 408.4 138.116C407.933 138.232 407.533 138.325 407.2 138.395C406.867 138.465 406.5 138.523 406.1 138.569C405.7 138.616 405.267 138.662 404.8 138.709C404.333 138.755 403.833 138.779 403.3 138.779C402.767 138.779 402.033 138.79 401.1 138.814C400.167 138.837 399.267 138.848 398.4 138.848C397.533 138.848 396.3 138.848 394.7 138.848C393.1 138.848 391.533 138.848 390 138.848C388.6 138.848 386.833 138.848 384.7 138.848C378.767 138.872 375.433 138.93 374.7 139.023C374.633 139.046 374.567 139.058 374.5 139.058C372.1 139.383 370.233 139.965 368.9 140.802C367.567 141.639 366.9 142.465 366.9 143.278C366.9 143.534 366.8 143.697 366.6 143.767C366.4 143.837 365.867 143.871 365 143.871C364.133 143.871 363.6 143.837 363.4 143.767C363.2 143.697 363.1 143.534 363.1 143.278C363.1 142.488 362.433 141.674 361.1 140.837C359.767 140 357.9 139.407 355.5 139.058C354.767 138.941 353.7 138.883 352.3 138.883C350.9 138.883 345.833 138.872 337.1 138.848H332.1C328.433 138.848 325.867 138.779 324.4 138.639C322.933 138.5 321.533 138.162 320.2 137.628C318.467 137.023 317.067 136.093 316 134.837C315.467 133.977 315.167 133.36 315.1 132.988C315.1 132.942 315.1 132.791 315.1 132.535C315.1 132.279 315.067 132.07 315 131.907V131.209C315.4 131.07 316 131 316.8 131C317.667 131 318.2 131.035 318.4 131.105C318.6 131.151 318.7 131.337 318.7 131.663C318.9 132.895 319.7 133.86 321.1 134.558C322.5 135.256 323.9 135.674 325.3 135.814C326.167 135.93 331.1 135.988 340.1 135.988H348.3C351.433 135.988 353.567 136.023 354.7 136.093C355.833 136.163 357.133 136.36 358.6 136.686C361.467 137.407 363.433 138.418 364.5 139.72L365 140.209L365.5 139.72C365.9 139.302 366.4 138.883 367 138.465C367.6 138.046 368.733 137.558 370.4 137C372.067 136.442 374.033 136.116 376.3 136.023C376.7 136 381.233 135.988 389.9 135.988C398.9 135.988 403.833 135.93 404.7 135.814C406.5 135.581 408 135.081 409.2 134.314C410.4 133.546 411.1 132.663 411.3 131.663C411.3 131.337 411.4 131.151 411.6 131.105C411.8 131.035 412.3 131 413.1 131Z" fill="black"/>
<path d="M277.93 183L277.135 180.21H273.805L273.01 183H271.3L274.36 172.53H276.655L279.715 183H277.93ZM275.53 174.225H275.41L274.12 178.815H276.82L275.53 174.225ZM293.503 183.18C292.663 183.18 291.938 183.045 291.328 182.775C290.728 182.505 290.243 182.145 289.873 181.695L290.878 180.795C291.218 181.165 291.598 181.45 292.018 181.65C292.448 181.84 292.953 181.935 293.533 181.935C294.063 181.935 294.488 181.845 294.808 181.665C295.138 181.485 295.303 181.205 295.303 180.825C295.303 180.665 295.273 180.53 295.213 180.42C295.153 180.31 295.068 180.22 294.958 180.15C294.848 180.08 294.718 180.025 294.568 179.985C294.428 179.945 294.278 179.915 294.118 179.895L292.888 179.7C292.588 179.66 292.283 179.595 291.973 179.505C291.663 179.415 291.383 179.29 291.133 179.13C290.893 178.96 290.693 178.745 290.533 178.485C290.383 178.225 290.308 177.895 290.308 177.495C290.308 176.705 290.608 176.105 291.208 175.695C291.818 175.285 292.618 175.08 293.608 175.08C294.328 175.08 294.948 175.19 295.468 175.41C295.998 175.62 296.438 175.915 296.788 176.295L295.873 177.255C295.673 177.025 295.388 176.815 295.018 176.625C294.648 176.425 294.158 176.325 293.548 176.325C292.458 176.325 291.913 176.67 291.913 177.36C291.913 177.69 292.028 177.92 292.258 178.05C292.498 178.17 292.778 178.25 293.098 178.29L294.328 178.485C294.638 178.535 294.943 178.6 295.243 178.68C295.553 178.76 295.828 178.885 296.068 179.055C296.318 179.215 296.518 179.425 296.668 179.685C296.828 179.945 296.908 180.275 296.908 180.675C296.908 181.455 296.603 182.07 295.993 182.52C295.393 182.96 294.563 183.18 293.503 183.18ZM302.962 173.85C302.542 173.85 302.247 173.765 302.077 173.595C301.917 173.425 301.837 173.215 301.837 172.965V172.65C301.837 172.4 301.917 172.19 302.077 172.02C302.247 171.85 302.537 171.765 302.947 171.765C303.367 171.765 303.657 171.85 303.817 172.02C303.987 172.19 304.072 172.4 304.072 172.65V172.965C304.072 173.215 303.987 173.425 303.817 173.595C303.657 173.765 303.372 173.85 302.962 173.85ZM299.497 181.68H302.137V176.58H299.497V175.26H303.772V181.68H306.247V183H299.497V181.68ZM308.237 183V175.26H309.872V176.58H309.947C310.027 176.38 310.127 176.19 310.247 176.01C310.377 175.82 310.532 175.66 310.712 175.53C310.892 175.39 311.102 175.28 311.342 175.2C311.582 175.12 311.862 175.08 312.182 175.08C312.962 175.08 313.592 175.335 314.072 175.845C314.552 176.355 314.792 177.08 314.792 178.02V183H313.157V178.26C313.157 177.03 312.622 176.415 311.552 176.415C311.342 176.415 311.137 176.445 310.937 176.505C310.737 176.555 310.557 176.635 310.397 176.745C310.237 176.855 310.107 176.995 310.007 177.165C309.917 177.335 309.872 177.53 309.872 177.75V183H308.237ZM324.521 183.84C324.521 184.64 324.186 185.23 323.516 185.61C322.846 185.99 321.826 186.18 320.456 186.18C319.786 186.18 319.221 186.135 318.761 186.045C318.311 185.965 317.941 185.845 317.651 185.685C317.371 185.525 317.166 185.33 317.036 185.1C316.916 184.87 316.856 184.61 316.856 184.32C316.856 183.9 316.971 183.57 317.201 183.33C317.441 183.1 317.776 182.93 318.206 182.82V182.67C317.946 182.57 317.736 182.43 317.576 182.25C317.426 182.07 317.351 181.835 317.351 181.545C317.351 181.165 317.481 180.88 317.741 180.69C318.001 180.49 318.336 180.34 318.746 180.24V180.165C318.276 179.945 317.911 179.635 317.651 179.235C317.391 178.835 317.261 178.355 317.261 177.795C317.261 177.385 317.336 177.015 317.486 176.685C317.636 176.345 317.846 176.06 318.116 175.83C318.396 175.59 318.726 175.405 319.106 175.275C319.496 175.145 319.931 175.08 320.411 175.08C320.951 175.08 321.436 175.165 321.866 175.335V175.08C321.866 174.78 321.951 174.53 322.121 174.33C322.291 174.13 322.551 174.03 322.901 174.03H324.311V175.32H322.511V175.68C322.851 175.91 323.111 176.205 323.291 176.565C323.471 176.915 323.561 177.325 323.561 177.795C323.561 178.205 323.486 178.58 323.336 178.92C323.186 179.25 322.971 179.535 322.691 179.775C322.421 180.005 322.091 180.185 321.701 180.315C321.321 180.435 320.891 180.495 320.411 180.495C320.071 180.495 319.751 180.465 319.451 180.405C319.271 180.455 319.091 180.54 318.911 180.66C318.731 180.78 318.641 180.945 318.641 181.155C318.641 181.395 318.756 181.545 318.986 181.605C319.216 181.665 319.501 181.695 319.841 181.695H321.581C322.621 181.695 323.371 181.895 323.831 182.295C324.291 182.685 324.521 183.2 324.521 183.84ZM322.991 183.945C322.991 183.685 322.886 183.475 322.676 183.315C322.466 183.165 322.086 183.09 321.536 183.09H318.851C318.471 183.27 318.281 183.56 318.281 183.96C318.281 184.25 318.401 184.5 318.641 184.71C318.891 184.92 319.301 185.025 319.871 185.025H321.086C321.706 185.025 322.176 184.93 322.496 184.74C322.826 184.56 322.991 184.295 322.991 183.945ZM320.411 179.37C320.941 179.37 321.331 179.245 321.581 178.995C321.831 178.745 321.956 178.41 321.956 177.99V177.585C321.956 177.165 321.831 176.83 321.581 176.58C321.331 176.33 320.941 176.205 320.411 176.205C319.881 176.205 319.491 176.33 319.241 176.58C318.991 176.83 318.866 177.165 318.866 177.585V177.99C318.866 178.41 318.991 178.745 319.241 178.995C319.491 179.245 319.881 179.37 320.411 179.37ZM326.09 181.68H328.655V173.22H326.09V171.9H330.29V181.68H332.855V183H326.09V181.68ZM338.624 183.18C338.034 183.18 337.504 183.085 337.034 182.895C336.564 182.705 336.169 182.435 335.849 182.085C335.529 181.735 335.284 181.315 335.114 180.825C334.944 180.325 334.859 179.765 334.859 179.145C334.859 178.525 334.944 177.965 335.114 177.465C335.294 176.965 335.539 176.54 335.849 176.19C336.169 175.83 336.554 175.555 337.004 175.365C337.454 175.175 337.954 175.08 338.504 175.08C339.044 175.08 339.534 175.175 339.974 175.365C340.414 175.545 340.789 175.805 341.099 176.145C341.409 176.485 341.644 176.89 341.804 177.36C341.974 177.83 342.059 178.35 342.059 178.92V179.535H336.509V179.79C336.509 180.4 336.699 180.9 337.079 181.29C337.459 181.67 337.984 181.86 338.654 181.86C339.154 181.86 339.579 181.755 339.929 181.545C340.289 181.325 340.579 181.035 340.799 180.675L341.819 181.575C341.559 182.025 341.159 182.405 340.619 182.715C340.089 183.025 339.424 183.18 338.624 183.18ZM338.504 176.325C338.214 176.325 337.944 176.375 337.694 176.475C337.454 176.575 337.244 176.72 337.064 176.91C336.894 177.09 336.759 177.305 336.659 177.555C336.559 177.805 336.509 178.08 336.509 178.38V178.485H340.394V178.335C340.394 177.725 340.219 177.24 339.869 176.88C339.529 176.51 339.074 176.325 338.504 176.325ZM353.267 183V181.605H356.207V173.76H356.087L353.657 176.355L352.622 175.425L355.292 172.53H357.887V181.605H360.422V183H353.267ZM365.441 183.18C364.781 183.18 364.206 183.06 363.716 182.82C363.236 182.57 362.836 182.215 362.516 181.755C362.206 181.295 361.976 180.73 361.826 180.06C361.676 179.39 361.601 178.625 361.601 177.765C361.601 176.915 361.676 176.155 361.826 175.485C361.976 174.805 362.206 174.235 362.516 173.775C362.836 173.315 363.236 172.965 363.716 172.725C364.206 172.475 364.781 172.35 365.441 172.35C366.101 172.35 366.671 172.475 367.151 172.725C367.641 172.965 368.041 173.315 368.351 173.775C368.671 174.235 368.906 174.805 369.056 175.485C369.206 176.155 369.281 176.915 369.281 177.765C369.281 178.625 369.206 179.39 369.056 180.06C368.906 180.73 368.671 181.295 368.351 181.755C368.041 182.215 367.641 182.57 367.151 182.82C366.671 183.06 366.101 183.18 365.441 183.18ZM365.441 181.8C366.201 181.8 366.741 181.52 367.061 180.96C367.391 180.39 367.556 179.625 367.556 178.665V176.865C367.556 175.905 367.391 175.145 367.061 174.585C366.741 174.015 366.201 173.73 365.441 173.73C365.061 173.73 364.736 173.805 364.466 173.955C364.196 174.095 363.976 174.305 363.806 174.585C363.636 174.855 363.511 175.185 363.431 175.575C363.361 175.955 363.326 176.385 363.326 176.865V178.665C363.326 179.145 363.361 179.58 363.431 179.97C363.511 180.35 363.636 180.68 363.806 180.96C363.976 181.23 364.196 181.44 364.466 181.59C364.736 181.73 365.061 181.8 365.441 181.8ZM365.441 178.65C365.091 178.65 364.846 178.58 364.706 178.44C364.576 178.3 364.511 178.13 364.511 177.93V177.6C364.511 177.4 364.576 177.23 364.706 177.09C364.846 176.95 365.091 176.88 365.441 176.88C365.791 176.88 366.031 176.95 366.161 177.09C366.301 177.23 366.371 177.4 366.371 177.6V177.93C366.371 178.13 366.301 178.3 366.161 178.44C366.031 178.58 365.791 178.65 365.441 178.65ZM380.115 171.9H381.75V176.58H381.84C382.07 176.11 382.375 175.745 382.755 175.485C383.135 175.215 383.61 175.08 384.18 175.08C385.09 175.08 385.815 175.42 386.355 176.1C386.895 176.78 387.165 177.79 387.165 179.13C387.165 180.47 386.895 181.48 386.355 182.16C385.815 182.84 385.09 183.18 384.18 183.18C383.61 183.18 383.135 183.05 382.755 182.79C382.375 182.52 382.07 182.15 381.84 181.68H381.75V183H380.115V171.9ZM383.505 181.845C384.125 181.845 384.6 181.655 384.93 181.275C385.27 180.895 385.44 180.39 385.44 179.76V178.5C385.44 177.87 385.27 177.365 384.93 176.985C384.6 176.605 384.125 176.415 383.505 176.415C383.265 176.415 383.04 176.445 382.83 176.505C382.62 176.565 382.435 176.655 382.275 176.775C382.115 176.895 381.985 177.045 381.885 177.225C381.795 177.395 381.75 177.6 381.75 177.84V180.42C381.75 180.66 381.795 180.87 381.885 181.05C381.985 181.22 382.115 181.365 382.275 181.485C382.435 181.605 382.62 181.695 382.83 181.755C383.04 181.815 383.265 181.845 383.505 181.845ZM392.904 173.85C392.484 173.85 392.189 173.765 392.019 173.595C391.859 173.425 391.779 173.215 391.779 172.965V172.65C391.779 172.4 391.859 172.19 392.019 172.02C392.189 171.85 392.479 171.765 392.889 171.765C393.309 171.765 393.599 171.85 393.759 172.02C393.929 172.19 394.014 172.4 394.014 172.65V172.965C394.014 173.215 393.929 173.425 393.759 173.595C393.599 173.765 393.314 173.85 392.904 173.85ZM389.439 181.68H392.079V176.58H389.439V175.26H393.714V181.68H396.189V183H389.439V181.68ZM401.883 183C401.203 183 400.703 182.82 400.383 182.46C400.063 182.09 399.903 181.615 399.903 181.035V176.58H397.518V175.26H399.213C399.503 175.26 399.708 175.205 399.828 175.095C399.948 174.975 400.008 174.765 400.008 174.465V172.53H401.538V175.26H404.838V176.58H401.538V181.68H404.838V183H401.883ZM418.401 183L415.626 175.26H417.321L418.386 178.53L419.391 181.635H419.481L420.486 178.53L421.551 175.26H423.186L420.411 183H418.401ZM431.28 183C430.81 183 430.455 182.88 430.215 182.64C429.985 182.4 429.845 182.085 429.795 181.695H429.72C429.57 182.165 429.295 182.53 428.895 182.79C428.505 183.05 428.005 183.18 427.395 183.18C426.605 183.18 425.975 182.975 425.505 182.565C425.035 182.145 424.8 181.57 424.8 180.84C424.8 180.09 425.075 179.52 425.625 179.13C426.185 178.73 427.04 178.53 428.19 178.53H429.675V177.93C429.675 176.88 429.12 176.355 428.01 176.355C427.51 176.355 427.105 176.455 426.795 176.655C426.485 176.845 426.225 177.1 426.015 177.42L425.04 176.625C425.26 176.205 425.63 175.845 426.15 175.545C426.67 175.235 427.34 175.08 428.16 175.08C429.14 175.08 429.91 175.315 430.47 175.785C431.03 176.255 431.31 176.935 431.31 177.825V181.71H432.285V183H431.28ZM427.86 181.98C428.39 181.98 428.825 181.86 429.165 181.62C429.505 181.38 429.675 181.07 429.675 180.69V179.565H428.22C427.04 179.565 426.45 179.92 426.45 180.63V180.93C426.45 181.28 426.575 181.545 426.825 181.725C427.075 181.895 427.42 181.98 427.86 181.98ZM434.02 181.68H436.585V173.22H434.02V171.9H438.22V181.68H440.785V183H434.02V181.68ZM447.994 181.68H447.919C447.839 181.88 447.734 182.075 447.604 182.265C447.484 182.445 447.334 182.605 447.154 182.745C446.974 182.875 446.764 182.98 446.524 183.06C446.284 183.14 446.004 183.18 445.684 183.18C444.904 183.18 444.274 182.925 443.794 182.415C443.314 181.905 443.074 181.18 443.074 180.24V175.26H444.709V180C444.709 181.23 445.244 181.845 446.314 181.845C446.524 181.845 446.729 181.82 446.929 181.77C447.129 181.71 447.309 181.625 447.469 181.515C447.629 181.405 447.754 181.27 447.844 181.11C447.944 180.94 447.994 180.74 447.994 180.51V175.26H449.629V183H447.994V181.68ZM455.548 183.18C454.958 183.18 454.428 183.085 453.958 182.895C453.488 182.705 453.093 182.435 452.773 182.085C452.453 181.735 452.208 181.315 452.038 180.825C451.868 180.325 451.783 179.765 451.783 179.145C451.783 178.525 451.868 177.965 452.038 177.465C452.218 176.965 452.463 176.54 452.773 176.19C453.093 175.83 453.478 175.555 453.928 175.365C454.378 175.175 454.878 175.08 455.428 175.08C455.968 175.08 456.458 175.175 456.898 175.365C457.338 175.545 457.713 175.805 458.023 176.145C458.333 176.485 458.568 176.89 458.728 177.36C458.898 177.83 458.983 178.35 458.983 178.92V179.535H453.433V179.79C453.433 180.4 453.623 180.9 454.003 181.29C454.383 181.67 454.908 181.86 455.578 181.86C456.078 181.86 456.503 181.755 456.853 181.545C457.213 181.325 457.503 181.035 457.723 180.675L458.743 181.575C458.483 182.025 458.083 182.405 457.543 182.715C457.013 183.025 456.348 183.18 455.548 183.18ZM455.428 176.325C455.138 176.325 454.868 176.375 454.618 176.475C454.378 176.575 454.168 176.72 453.988 176.91C453.818 177.09 453.683 177.305 453.583 177.555C453.483 177.805 453.433 178.08 453.433 178.38V178.485H457.318V178.335C457.318 177.725 457.143 177.24 456.793 176.88C456.453 176.51 455.998 176.325 455.428 176.325Z" fill="black"/>
<path d="M319.646 68.3536C319.842 68.5488 320.158 68.5488 320.354 68.3536L323.536 65.1716C323.731 64.9763 323.731 64.6597 323.536 64.4645C323.34 64.2692 323.024 64.2692 322.828 64.4645L320 67.2929L317.172 64.4645C316.976 64.2692 316.66 64.2692 316.464 64.4645C316.269 64.6597 316.269 64.9763 316.464 65.1716L319.646 68.3536ZM320 49H319.5V68H320H320.5V49H320Z" fill="black"/>
<path d="M409.646 69.3536C409.842 69.5488 410.158 69.5488 410.354 69.3536L413.536 66.1716C413.731 65.9763 413.731 65.6597 413.536 65.4645C413.34 65.2692 413.024 65.2692 412.828 65.4645L410 68.2929L407.172 65.4645C406.976 65.2692 406.66 65.2692 406.464 65.4645C406.269 65.6597 406.269 65.9763 406.464 66.1716L409.646 69.3536ZM410 50H409.5V69H410H410.5V50H410Z" fill="black"/>
<path d="M294.185 30.9H295.82V35.58H295.91C296.14 35.11 296.445 34.745 296.825 34.485C297.205 34.215 297.68 34.08 298.25 34.08C299.16 34.08 299.885 34.42 300.425 35.1C300.965 35.78 301.235 36.79 301.235 38.13C301.235 39.47 300.965 40.48 300.425 41.16C299.885 41.84 299.16 42.18 298.25 42.18C297.68 42.18 297.205 42.05 296.825 41.79C296.445 41.52 296.14 41.15 295.91 40.68H295.82V42H294.185V30.9ZM297.575 40.845C298.195 40.845 298.67 40.655 299 40.275C299.34 39.895 299.51 39.39 299.51 38.76V37.5C299.51 36.87 299.34 36.365 299 35.985C298.67 35.605 298.195 35.415 297.575 35.415C297.335 35.415 297.11 35.445 296.9 35.505C296.69 35.565 296.505 35.655 296.345 35.775C296.185 35.895 296.055 36.045 295.955 36.225C295.865 36.395 295.82 36.6 295.82 36.84V39.42C295.82 39.66 295.865 39.87 295.955 40.05C296.055 40.22 296.185 40.365 296.345 40.485C296.505 40.605 296.69 40.695 296.9 40.755C297.11 40.815 297.335 40.845 297.575 40.845ZM306.974 32.85C306.554 32.85 306.259 32.765 306.089 32.595C305.929 32.425 305.849 32.215 305.849 31.965V31.65C305.849 31.4 305.929 31.19 306.089 31.02C306.259 30.85 306.549 30.765 306.959 30.765C307.379 30.765 307.669 30.85 307.829 31.02C307.999 31.19 308.084 31.4 308.084 31.65V31.965C308.084 32.215 307.999 32.425 307.829 32.595C307.669 32.765 307.384 32.85 306.974 32.85ZM303.509 40.68H306.149V35.58H303.509V34.26H307.784V40.68H310.259V42H303.509V40.68ZM315.953 42C315.273 42 314.773 41.82 314.453 41.46C314.133 41.09 313.973 40.615 313.973 40.035V35.58H311.588V34.26H313.283C313.573 34.26 313.778 34.205 313.898 34.095C314.018 33.975 314.078 33.765 314.078 33.465V31.53H315.608V34.26H318.908V35.58H315.608V40.68H318.908V42H315.953ZM333.507 42.18C332.917 42.18 332.392 42.085 331.932 41.895C331.472 41.705 331.082 41.435 330.762 41.085C330.442 40.725 330.197 40.295 330.027 39.795C329.857 39.295 329.772 38.73 329.772 38.1C329.772 37.34 329.887 36.625 330.117 35.955C330.347 35.285 330.647 34.67 331.017 34.11C331.387 33.55 331.797 33.055 332.247 32.625C332.697 32.185 333.142 31.82 333.582 31.53H335.832C335.232 31.96 334.692 32.375 334.212 32.775C333.732 33.175 333.312 33.585 332.952 34.005C332.602 34.425 332.307 34.87 332.067 35.34C331.827 35.8 331.642 36.315 331.512 36.885L331.617 36.915C331.727 36.705 331.857 36.51 332.007 36.33C332.157 36.14 332.332 35.975 332.532 35.835C332.732 35.695 332.962 35.585 333.222 35.505C333.482 35.425 333.777 35.385 334.107 35.385C334.557 35.385 334.972 35.46 335.352 35.61C335.732 35.76 336.062 35.98 336.342 36.27C336.622 36.55 336.837 36.89 336.987 37.29C337.147 37.69 337.227 38.14 337.227 38.64C337.227 39.16 337.137 39.64 336.957 40.08C336.787 40.51 336.537 40.88 336.207 41.19C335.887 41.5 335.497 41.745 335.037 41.925C334.577 42.095 334.067 42.18 333.507 42.18ZM333.492 40.83C334.132 40.83 334.627 40.66 334.977 40.32C335.327 39.97 335.502 39.48 335.502 38.85V38.7C335.502 38.07 335.327 37.585 334.977 37.245C334.627 36.895 334.132 36.72 333.492 36.72C332.862 36.72 332.372 36.895 332.022 37.245C331.672 37.585 331.497 38.07 331.497 38.7V38.85C331.497 39.48 331.672 39.97 332.022 40.32C332.372 40.66 332.862 40.83 333.492 40.83ZM342.471 42.18C341.811 42.18 341.236 42.06 340.746 41.82C340.266 41.57 339.866 41.215 339.546 40.755C339.236 40.295 339.006 39.73 338.856 39.06C338.706 38.39 338.631 37.625 338.631 36.765C338.631 35.915 338.706 35.155 338.856 34.485C339.006 33.805 339.236 33.235 339.546 32.775C339.866 32.315 340.266 31.965 340.746 31.725C341.236 31.475 341.811 31.35 342.471 31.35C343.131 31.35 343.701 31.475 344.181 31.725C344.671 31.965 345.071 32.315 345.381 32.775C345.701 33.235 345.936 33.805 346.086 34.485C346.236 35.155 346.311 35.915 346.311 36.765C346.311 37.625 346.236 38.39 346.086 39.06C345.936 39.73 345.701 40.295 345.381 40.755C345.071 41.215 344.671 41.57 344.181 41.82C343.701 42.06 343.131 42.18 342.471 42.18ZM342.471 40.8C343.231 40.8 343.771 40.52 344.091 39.96C344.421 39.39 344.586 38.625 344.586 37.665V35.865C344.586 34.905 344.421 34.145 344.091 33.585C343.771 33.015 343.231 32.73 342.471 32.73C342.091 32.73 341.766 32.805 341.496 32.955C341.226 33.095 341.006 33.305 340.836 33.585C340.666 33.855 340.541 34.185 340.461 34.575C340.391 34.955 340.356 35.385 340.356 35.865V37.665C340.356 38.145 340.391 38.58 340.461 38.97C340.541 39.35 340.666 39.68 340.836 39.96C341.006 40.23 341.226 40.44 341.496 40.59C341.766 40.73 342.091 40.8 342.471 40.8ZM342.471 37.65C342.121 37.65 341.876 37.58 341.736 37.44C341.606 37.3 341.541 37.13 341.541 36.93V36.6C341.541 36.4 341.606 36.23 341.736 36.09C341.876 35.95 342.121 35.88 342.471 35.88C342.821 35.88 343.061 35.95 343.191 36.09C343.331 36.23 343.401 36.4 343.401 36.6V36.93C343.401 37.13 343.331 37.3 343.191 37.44C343.061 37.58 342.821 37.65 342.471 37.65Z" fill="black"/>
<path d="M389.185 30.9H390.82V35.58H390.91C391.14 35.11 391.445 34.745 391.825 34.485C392.205 34.215 392.68 34.08 393.25 34.08C394.16 34.08 394.885 34.42 395.425 35.1C395.965 35.78 396.235 36.79 396.235 38.13C396.235 39.47 395.965 40.48 395.425 41.16C394.885 41.84 394.16 42.18 393.25 42.18C392.68 42.18 392.205 42.05 391.825 41.79C391.445 41.52 391.14 41.15 390.91 40.68H390.82V42H389.185V30.9ZM392.575 40.845C393.195 40.845 393.67 40.655 394 40.275C394.34 39.895 394.51 39.39 394.51 38.76V37.5C394.51 36.87 394.34 36.365 394 35.985C393.67 35.605 393.195 35.415 392.575 35.415C392.335 35.415 392.11 35.445 391.9 35.505C391.69 35.565 391.505 35.655 391.345 35.775C391.185 35.895 391.055 36.045 390.955 36.225C390.865 36.395 390.82 36.6 390.82 36.84V39.42C390.82 39.66 390.865 39.87 390.955 40.05C391.055 40.22 391.185 40.365 391.345 40.485C391.505 40.605 391.69 40.695 391.9 40.755C392.11 40.815 392.335 40.845 392.575 40.845ZM401.974 32.85C401.554 32.85 401.259 32.765 401.089 32.595C400.929 32.425 400.849 32.215 400.849 31.965V31.65C400.849 31.4 400.929 31.19 401.089 31.02C401.259 30.85 401.549 30.765 401.959 30.765C402.379 30.765 402.669 30.85 402.829 31.02C402.999 31.19 403.084 31.4 403.084 31.65V31.965C403.084 32.215 402.999 32.425 402.829 32.595C402.669 32.765 402.384 32.85 401.974 32.85ZM398.509 40.68H401.149V35.58H398.509V34.26H402.784V40.68H405.259V42H398.509V40.68ZM410.953 42C410.273 42 409.773 41.82 409.453 41.46C409.133 41.09 408.973 40.615 408.973 40.035V35.58H406.588V34.26H408.283C408.573 34.26 408.778 34.205 408.898 34.095C409.018 33.975 409.078 33.765 409.078 33.465V31.53H410.608V34.26H413.908V35.58H410.608V40.68H413.908V42H410.953ZM431.642 32.985H426.887L426.617 36.705H426.737C426.977 36.295 427.267 35.97 427.607 35.73C427.947 35.48 428.412 35.355 429.002 35.355C429.452 35.355 429.867 35.43 430.247 35.58C430.637 35.73 430.972 35.945 431.252 36.225C431.542 36.505 431.767 36.85 431.927 37.26C432.097 37.66 432.182 38.115 432.182 38.625C432.182 39.145 432.097 39.625 431.927 40.065C431.757 40.495 431.512 40.87 431.192 41.19C430.872 41.5 430.477 41.745 430.007 41.925C429.537 42.095 429.002 42.18 428.402 42.18C427.932 42.18 427.512 42.125 427.142 42.015C426.782 41.915 426.457 41.78 426.167 41.61C425.887 41.43 425.642 41.23 425.432 41.01C425.222 40.78 425.037 40.545 424.877 40.305L426.107 39.345C426.237 39.545 426.372 39.735 426.512 39.915C426.662 40.085 426.827 40.235 427.007 40.365C427.187 40.495 427.392 40.595 427.622 40.665C427.862 40.735 428.132 40.77 428.432 40.77C429.082 40.77 429.577 40.595 429.917 40.245C430.257 39.885 430.427 39.4 430.427 38.79V38.67C430.427 38.06 430.252 37.585 429.902 37.245C429.562 36.905 429.072 36.735 428.432 36.735C427.962 36.735 427.592 36.82 427.322 36.99C427.052 37.16 426.817 37.35 426.617 37.56L425.222 37.365L425.612 31.53H431.642V32.985Z" fill="black"/>
<defs>
<filter id="filter0_d_1_63" x="30" y="73" width="330" height="59" filterUnits="userSpaceOnUse" color-interpolation-filters="sRGB">
<feFlood flood-opacity="0" result="BackgroundImageFix"/>
<feColorMatrix in="SourceAlpha" type="matrix" values="0 0 0 0 0 0 0 0 0 0 0 0 0 0 0 0 0 0 127 0" result="hardAlpha"/>
<feOffset dy="4"/>
<feGaussianBlur stdDeviation="2"/>
<feComposite in2="hardAlpha" operator="out"/>
<feColorMatrix type="matrix" values="0 0 0 0 0 0 0 0 0 0 0 0 0 0 0 0 0 0 0.25 0"/>
<feBlend mode="normal" in2="BackgroundImageFix" result="effect1_dropShadow_1_63"/>
<feBlend mode="normal" in="SourceGraphic" in2="effect1_dropShadow_1_63" result="shape"/>
</filter>
<filter id="filter1_d_1_63" x="350" y="73" width="330" height="59" filterUnits="userSpaceOnUse" color-interpolation-filters="sRGB">
<feFlood flood-opacity="0" result="BackgroundImageFix"/>
<feColorMatrix in="SourceAlpha" type="matrix" values="0 0 0 0 0 0 0 0 0 0 0 0 0 0 0 0 0 0 127 0" result="hardAlpha"/>
<feOffset dy="4"/>
<feGaussianBlur stdDeviation="2"/>
<feComposite in2="hardAlpha" operator="out"/>
<feColorMatrix type="matrix" values="0 0 0 0 0 0 0 0 0 0 0 0 0 0 0 0 0 0 0.25 0"/>
<feBlend mode="normal" in2="BackgroundImageFix" result="effect1_dropShadow_1_63"/>
<feBlend mode="normal" in="SourceGraphic" in2="effect1_dropShadow_1_63" result="shape"/>
</filter>
</defs>
</svg>
