<svg xmlns="http://www.w3.org/2000/svg" viewBox="0 0 810.38 973.52"><defs><style>.cls-1{fill:#010101;}.cls-2{fill:#294999;}.cls-3{fill:#6a71b4;}.cls-4{fill:#274093;}.cls-5{fill:#5961a9;}.cls-6{fill:#fff;}.cls-7{fill:#cdcccc;}.cls-8{fill:#14162e;}</style></defs><g id="Livello_2" data-name="Livello 2"><g id="Livello_1-2" data-name="Livello 1"><path class="cls-1" d="M810.36,798.51l0,10.08c-1.32,22-10.79,41-22,59.44C775.61,889,757.79,903.41,735,912.35c-11.37,4.46-22.29,10.06-33.45,15.07-15.35,6.89-31.9,9.84-47.92,14.51-32.62,9.53-66,15.81-99.2,23-12.07,2.62-24.75,2.36-37.16,3.4-18.52,1.55-37,3.55-55.58,4.47-16.26.81-32.58.41-48.87.55-2.33,0-4.65.1-7,.15l-26.95,0-48.09.07-20.92,0c-15.79-.64-31.59.27-47.37-.93-48.35-3.67-95.34-13.72-141.48-28.48-19.87-6.36-37.11-17.43-55-27.5-10.35-5.84-21.23-10.82-30.38-18.73C4.85,871.1-16.15,812.76,16.31,764.58c12.82-19,27.6-35.23,49.14-44.27a102.09,102.09,0,0,1,45.28-7.56c3.83.19,5.72-.76,6.26-4.72,1.06-7.78,4.12-14.92,7.32-22,10.12-22.56,16.34-46.48,24.1-69.87q26-78.42,51.4-157c27.19-84.57,54.95-168.95,85.4-252.41,9-24.7,20.36-48.55,30.31-72.91,8.21-20.08,16.53-40.06,27-59.15,15.71-28.78,40.07-47.5,68.69-62,10.18-5.16,40.79-11,51.45-11.5C486.34,0,485-.94,506.08,1.82a132.66,132.66,0,0,1,13.52,3c15.52,6,29.95,14.08,44,22.75,8.21,5.06,13.75,12.94,19.09,20.8,12,17.65,19.45,37.6,28.42,56.76,2.73,5.82,2.92,12.84,4.48,20.3-5.91-2.88-11.17-5.33-16.32-8a123.19,123.19,0,0,1-13-7.32c-15.57-10.69-34.17-11.89-51.58-16.81-1.57-.45-2.88.15-4.25.86-9.13,4.69-18.25,9.42-27.47,13.92-2.37,1.16-2.49,2.29-1.84,4.64,39.7,144.72,83.87,288.15,124.88,432.5a1076.26,1076.26,0,0,0,61.24,163.47c.87,1.85,1.14,4.52,4.22,3.88,10.48-2.18,20.38,1.53,30.43,3.22,13.33,2.25,26.9,3.77,39.12,10.52,7.6,4.21,14.89,8.59,20.27,15.67,7.09,9.35,16.71,16.73,21.67,27.75A82.1,82.1,0,0,1,810.36,798.51Z"/><path class="cls-2" d="M165.32,686.21c4.52-16.56,9.59-33,13.44-49.7,13.62-59,31.58-116.68,48.3-174.77,1.82-6.33,4.12-12.53,6.2-18.8a6.73,6.73,0,0,1,1.17-1.59c6-6.25,7.91-6.17,13,1,6,8.38,12.18,16.61,18.3,25.28.26-10.7-1.27-21.12-1.35-31.6a17.44,17.44,0,0,0-.42-2.45c-1.26-8.92.08-16.1,8.86-21.58,11.6-7.26,22.21-16.1,34.07-24.78-10.45,1.12-20,1.71-29.51,2.66-.82.09-1.63.29-2.46.38-9.22.94-10,.52-12.76-8.23-1.55-4.92-3.66-9.61-5.47-14.42q28.23-85.74,58.55-170.78c6.39-17.93,13.45-35.58,20.93-53.06,4.67-10.88,10.8-21.1,16.86-31.29,7.16-7.44,15.19-13.91,22.9-20.75,3.35-3,6.31-6.39,10-9,2.47-1.79,4.87-2.73,7.73-.64,12.07,8.85,24.21,17.59,36.14,26.58-3.12-14.38-6.38-28.95-10.2-43.37-1.81-6.84-1.28-11.74,4.57-16.55,9.88-8.12,19.28-16.83,28.78-25.41a12.19,12.19,0,0,1,4.2-2.63c12.68-3.89,25.6-3.69,38.66-2.79,13.88.94,25.75,7.77,38.26,12.65,4.74,1.85,7,7.18,10.55,10.81-1.62,2-3.93,1.45-6,1.45a32.23,32.23,0,0,0-10.29,1.5c-6.31,2.13-8,9-2.84,13.27,9.37,7.79,19.48,14.39,31.89,16.45,1.83.31,4.17,0,4.87,2.55-10.26,0-20.54.32-30.77-.26-13.39-.75-23.57,5.06-32.5,14.15-.69.71-1.33,1.47-2,2.19a6.41,6.41,0,0,1-1,.51q-9.78-26.31-19.52-52.48c-1.43-.12-1.43-.12-.82,2,2.83,16.48,5.4,33,8.56,49.43,7.47,38.68,15.13,77.32,23.4,115.83Q522,275.16,538,342c7.76,32.32,15.68,64.61,23.5,96.92a10,10,0,0,1,.12,2c-7.2,4.39-15.59,5.37-23.37,8.12A131.53,131.53,0,0,1,525.11,453c7.79,5.31,14.6,10.25,21.61,14.9,3.74,2.48,7.42,5,11.09,7.62,3.38,2.38,4.07,5.07,2.82,9-4.83,15.18-9.41,30.44-14.18,46.83,5.24-4.68,9.75-8.69,14.13-12.8s9.41-7.9,13.63-12.4c1.12-1.19,2.44-2.33,4.35-1.86,6.1,17.31,10.68,35.05,15,52.86,1.93,8,5.85,15.44,6.93,23.7-.42,5.06-3.81,8.79-6,13-10.1,19.08-19.4,38.63-32.58,55.95C538.11,681,510,707.08,475.32,726c-34.9,19-72.3,29.32-111.47,33.58-10.49,1.14-21.23,1-31.82,1.57-19.23,1.09-38-3.12-57-3.74-24.7-.8-47.53-9-70.55-16.72-2.32-.77-4.63-2.09-7.2-.79-2.63-2-6.27-3.2-6.47-7.39,2.07-3,5.5-4.19,8.41-6,7.14-4.52,14.11-9.31,21.52-13.51-8.48-.68-16.94-1.79-25.47-2.15-4.43-.19-6.82-2.68-7.54-7.12-1.7-10.49-4-20.85-5.87-31.31-.34-1.92-.46-3.94-1.68-6.11-3.25,4-5.35,8.4-8.14,12.36C170.07,681.36,169.16,685.11,165.32,686.21Z"/><path class="cls-3" d="M31.58,824.49c.11-10.57,4.31-20,9.05-29,10.56-20,27.47-32.73,48.63-40,5.1-1.76,5.34-1.35,4.49,3.84-1.27,7.78.8,14.37,6,20.6,9,10.72,21.93,13.87,34,18.47a294,294,0,0,0,67.54,16.92c13.3,1.7,26.76,2.05,40.12,3.34,20.81,2,41.69,2.83,62.55,3.59,21.43.78,42.92.69,64.36.2,23.05-.53,46.11-1.45,69.09-3.18,18.8-1.42,37.48-4.33,56.22-6.47,16-1.82,31.94-3.43,47.9-5.23,18.59-2.08,37.16-4.33,55.75-6.39,25.45-2.83,49.06-12.72,73.59-19.09,9-2.35,18.39-4.11,26.46-9.38a31.36,31.36,0,0,0,6.29-4.82c3.32-3.63,4.63-7.39,1.87-12.1-2.32-4-4-8.27-6.22-12.32-1.49-2.74-.64-3.5,2.16-3.42,21.72.6,40.72,8.58,58.23,21,16.83,12,21.56,28.52,19.21,48a57,57,0,0,1-8.5,24.48,276.91,276.91,0,0,1-43,28c-39.31,21-81.19,35.09-124.58,44.68a735.11,735.11,0,0,1-89.11,14.34q-32.22,3.06-64.61,4.51c-28.28,1.28-56.54.72-84.8.58-14.4-.07-28.84-1.42-43.25-2.59a759.55,759.55,0,0,1-85.89-12,579.42,579.42,0,0,1-118.41-36.83c-22.53-9.76-43.64-22-64.1-35.48C45.56,834,37.93,830.2,31.58,824.49Z"/><path class="cls-4" d="M197.07,739.79c-.13-3.8,2.19-2.26,3.9-1.72,13.9,4.4,27.77,8.92,41.7,13.25,9.05,2.82,18.48,3.4,27.84,4.3,12.81,1.23,25.62,2.56,38.43,3.79s25.73.67,38.55-.56c6.93-.67,13.85-.19,20.82-1.06a319.72,319.72,0,0,0,79.61-20.21c27-10.83,51.72-25.72,73.23-45.2,23-20.78,43.07-44.08,57.65-71.82,7-13.34,13.63-26.93,21.66-39.73,5,17.34,9.8,34.77,15.18,52,9.46,30.36,17.78,61.1,29.77,90.64,4.36,10.75,10.82,20.16,17.46,29.49,1.69,2.38,2.06,3.27-1.56,3.8q-60.6,8.81-121.15,17.93c-32.5,4.86-64.94,10.06-97.48,14.59-10.83,1.51-21.86,1.62-32.81,2.05-30.56,1.21-61.07,3.57-91.68,3.27-16.84-.16-33.43-2.77-50.12-4.3-19.33-1.76-38.71-3.34-57.7-7.7-1.78-.41-3.57-.78-5.35-1.17a8.08,8.08,0,0,1-2.41-4.78q-3.15-15.6-6.21-31.21C196,743.52,195.48,741.51,197.07,739.79Z"/><path class="cls-5" d="M31.58,824.49c7.6,3,13.91,8.28,20.82,12.49,16,9.76,31.51,20.33,48.53,28.32a568.79,568.79,0,0,0,95.47,35.24Q224.47,908,253,913c15.73,2.79,31.6,4.94,47.55,6.55,17.78,1.8,35.56,2.94,53.39,4,28.74,1.67,57.48.89,86.2.6,20.47-.21,41-2.06,61.36-3.9a840.59,840.59,0,0,0,91-13.56A525.2,525.2,0,0,0,700,873.25a375,375,0,0,0,64.86-36.71c1.72-1.21,3.25-2.91,5.6-3C758,857,738.32,873,715.54,885.35c-20.53,11.13-43.2,17.08-64.94,25.27-29.07,11-59.54,17.06-89.34,25.45-7.06,2-14.81,1.61-22.25,2.12-21.35,1.48-42.71,2.8-64.06,4.27q-42.94,3-85.88,6c-7.94.57-15.86,1.63-23.8,1.77-13.63.24-27.08-2.26-40.63-3.3-12.06-.92-24.07-2.39-36.11-3.59q-23.75-2.39-47.48-4.73c-11.22-1.1-22.51-1.77-33.66-3.33-47.82-6.7-92.59-21.27-131.17-51.57C63.68,873.9,54.93,860.54,44,849.26,37,842.14,33.56,833.81,31.58,824.49Z"/><path class="cls-6" d="M256.69,367.58c4.92,4.4,5.48,10.8,7.22,16.54,1.22,4,2.85,5.53,7.17,5,10-1.21,20.14-2,30.22-2.84,2.59-.22,5.22-.66,8.62.2L278.13,410c-1.6,1.19-3.06,2.67-4.83,3.49-7.91,3.67-9,9.84-8.13,17.86,1.34,12.19,1.56,24.51,2.23,36.77a31.22,31.22,0,0,1-.34,3.47l-21.18-29.27c-3.95-5.47-3.93-5.46-9.28-1.52-1.06.78-2.23,1.42-3.34,2.12,5.68-22,14.2-43.1,20.28-65C254.5,374.48,255.63,371,256.69,367.58Z"/><path class="cls-6" d="M457.11,20.63c-11.8,10.71-23.57,21.47-35.45,32.09-2.05,1.83-2.84,3.28-2.11,6.26,4.16,17.06,8,34.2,12.11,52.35L404.35,91.41c-3.76-2.75-7.62-5.36-11.2-8.31-2.4-2-4-1.83-6.31.28-9.8,9-19.79,17.75-29.74,26.57-1.19,1-2.1,2.67-4.07,2.5.39-3,2.25-5.42,3.89-7.81C372.51,82,390.38,61.42,411.75,44,425.24,33,440.17,24.87,457.11,20.63Z"/><path class="cls-7" d="M197.07,739.79l8,41.65-13.43-3c-7.67-8.2-14.72-16.94-21.83-25.61-2.72-3.33-4.91-3.59-8.32-1.36-6.1,4-12.32,7.75-18.6,11.45-1.53.9-2.9,2.26-4.93,1.81-3.68-.06-2.86-2-1.9-4.25,6-14.29,11.81-28.63,17.7-43,1.12-2.71,2.22-5.42,3.32-8.13,8.32,4.29,15.17,10.69,22.9,15.83,3.72,2.47,7,5.55,11.12,7.47C192.13,735.87,197.06,735.74,197.07,739.79Z"/><path class="cls-6" d="M578.56,504.27c-11.14,9.88-22.28,19.75-34.45,30.52,4.17-13.92,8-26.56,11.73-39.21,1.6-5.37,5.26-11.32,4.07-16s-8.43-6.78-13-10c-7-5-14.21-9.77-21.3-14.67-.92-.63-2.18-1-2.36-2.66l38.36-11.31c6.16,19.11,10.55,38.71,15.92,58C578,500.7,578.23,502.5,578.56,504.27Z"/><path class="cls-6" d="M191.05,732.72c-1.76.78-3.27,0-4.59-1q-14.36-10.49-28.61-21.1a4.4,4.4,0,0,1-.82-1.23c1.91-8,5.45-15.5,8.29-23.21,5.07-7.73,10.14-15.46,15.82-24.14,1.79,9.2,3.42,17.53,5,25.85,1.08,5.71,2.19,11.41,3.13,17.13.43,2.64,1.55,3.94,4.39,4.15,9.9.73,19.79,1.67,31.06,2.66Z"/><path class="cls-6" d="M562.21,76.52a70.26,70.26,0,0,1-32.42-14c-3.36-2.58-7.87-4.3-8.27-9.82s1.1-8.42,6.76-10.07c5.35-1.56,10.86-1,16.3-1.36l34.77,38Z"/><path class="cls-4" d="M137.91,764.75c8.57-5.3,17.16-10.58,25.71-15.91,1.67-1,3-1.68,4.62.3,7.38,8.92,14.91,17.71,22.33,26.61a9.13,9.13,0,0,1,1,2.71c-17.17-4.89-35.06-6.85-52-12.86A14.58,14.58,0,0,1,137.91,764.75Z"/><path class="cls-8" d="M475.63,42.67c-1.3-1.35-.87-3-.93-4.67,1.54.42,1.32,1.73,1.75,2.63Z"/><path class="cls-6" d="M478.66,582.68c-16.84,9.66-33.63,19.41-50.58,28.88-3.3,1.85-4.3,3.15-2.72,7.07,6.31,15.68,12.14,31.55,18.07,47.38.5,1.33,1.58,2.58,1,4.69l-35.52-18.65c-7.93-4.16-15.94-8.18-23.76-12.55-2.54-1.41-4.34-1.19-6.72.19-15.24,8.78-30.56,17.42-45.88,26.07-1.53.86-2.88,2.36-5.2,1.75,7-14.21,13.9-28.41,21.06-42.47,1.53-3,1.28-4.4-1.72-6.08-10.57-5.92-21-12.11-31.43-18.23-1.39-.82-3.06-1.29-4.31-3.34,7.46-.86,14.63-1.71,21.8-2.49,9.9-1.07,19.81-2.22,29.73-3,2.87-.23,3.46-2.06,4.36-4q11.49-24.55,23-49.11c.49-1,1-2,1.72-3.42,2.38,2.64,2.92,5.8,4,8.6,5,12.47,9.82,25,14.47,37.58,1.24,3.39,2.85,4.36,6.53,4.1,20.66-1.46,41.35-2.58,62-3.81Z"/><path class="cls-6" d="M378.46,308.42c13.43-1.78,26.59-3.62,39.78-5.17,2.63-.31,3.12-1.82,3.84-3.73,6.64-17.51,13.32-35,20.38-53.54,1.94,6,3.64,11.21,5.28,16.42,3.17,10.13,6.4,20.23,9.38,30.41.9,3.07,2,4.08,5.52,3.75,14.56-1.35,29.16-2.24,43.75-3.27,1.57-.11,3.16,0,6,0-10.73,7.67-20.57,14.61-30.3,21.69-4.8,3.48-12.27,5.7-13.61,10.85-1.25,4.79,2.62,10.95,4.34,16.48q5.52,17.81,11.17,35.57c.4,1.26,1.08,2.43.5,3.88-15.26-10-30.57-20-45.69-30.18-3.06-2.06-5.07-2.29-8.16,0-11.35,8.39-23,16.46-34.47,24.63-1.47,1-3,2-4.74,3.18-.6-2.16.53-3.5,1.1-4.91,5.28-12.88,10.52-25.78,16-38.58,1.21-2.82.79-4.25-1.71-6-8.59-6-17-12.24-25.46-18.4C380.29,310.74,378.91,310.31,378.46,308.42Z"/></g></g></svg>